<?xml version="1.0" encoding="UTF-8"?>
<svg id="Layer_2" data-name="Layer 2" xmlns="http://www.w3.org/2000/svg" viewBox="0 0 456.23 593.46">
  <defs>
    <style>
      .cls-1 {
        fill: #fff;
        stroke-width: 0px;
      }
    </style>
  </defs>
  <g id="Layer_1-2" data-name="Layer 1">
    <g>
      <path class="cls-1" d="M278.01,496.24c6.96-18.92,21.03-29.7,38.98-36.6,21.96-8.45,42.05-20.24,58.69-37.01,19.72-19.87,34.19-43.08,43.32-69.76,5.06-14.77,8.38-29.83,10.23-45.16,3.67-30.46-.88-59.91-12.09-88.52-5.81-14.84-13.44-28.56-22.57-41.48-12.66-17.93-28.51-32.67-46.85-44.64-16.79-10.96-34.58-19.62-54.41-23.89-24.51-5.27-44.67,1.18-61.64,19.86-12.11,13.34-23.97,27.1-39.92,36.45-11.67,6.84-24.36,10.74-37.06,14.74-12.91,4.07-25.23,9.32-35.42,18.4-14.43,12.86-24.66,28.25-27.35,47.9-2.07,15.14-2.01,30.06,4.09,44.45,5.89,13.9,15.11,25.02,27.99,32.89,3.63,2.22,5.9,4.8,6.79,9.03,1.98,9.41,5.63,18.26,9.87,27.32-5.28,1.11-9.56-1.58-13.68-3.31-33.77-14.19-55.29-38.87-62.42-75.16-6.21-31.58,1.09-60.33,19.98-86.06,14.96-20.38,35.4-33.15,59.31-40.75,14.28-4.54,28.51-9.15,40.97-17.99,10.41-7.39,18.27-17.24,26.69-26.54,11.28-12.46,23.8-22.72,40.38-27.56,13.97-4.08,27.69-2.77,41.55-.11,26.65,5.1,50.51,16.7,72.47,32.11,16.71,11.73,31.34,25.92,44.28,41.81,20.21,24.82,33.13,53.05,40.68,84.07,5.14,21.09,6.37,42.54,4.58,63.81-3.18,37.6-14.92,72.68-36.33,104.15-18.42,27.08-41.5,49.02-70.23,65.09-21.82,12.21-45.13,19.35-69.74,22.75-.32.04-.67-.17-1.15-.31Z"/>
      <path class="cls-1" d="M177.25,496.78c-15.88-2.1-30.17-5.52-43.99-10.83-20.48-7.86-39.21-18.63-56.01-32.91-23.52-20-42.45-43.54-55.73-71.37-8.59-18.01-14.6-36.94-18.25-56.65-2.88-15.56-3.88-31.23-2.93-46.9,1.47-24.34,6.01-48.12,15.66-70.75,7.36-17.24,16.4-33.55,28.07-48.14,28.58-35.73,64.26-61.39,108.56-74.28,12.34-3.59,24.98-5.36,37.8-5.9,1.05-.04,2.16-.17,3.15.09,1.27.32,3.05.68,3.54,1.59.8,1.51-1.11,2.35-2.06,3.21-7.07,6.47-13.76,13.26-18.67,21.57-2.29,3.88-6.45,2.31-9.43,2.78-22.77,3.65-42.73,13.58-61.47,26.35-9.91,6.76-19.28,14.35-27.41,23.2-21.19,23.08-36.77,49.33-45.31,79.73-4.76,16.95-7.42,34.17-7.12,51.62.6,35.28,10.07,68.26,28.46,98.48,15.39,25.28,34.94,46.55,61.24,60.77,11.81,6.38,24.2,11.67,36.24,17.64,12.71,6.29,19.13,17.82,25.64,30.71Z"/>
      <path class="cls-1" d="M222.86,207.8c-3.37-6.68-7.77-12.11-13.09-16.53-3.92-3.25-2.63-5.31.03-8.18,9.28-9.97,20.41-17.44,32.78-22.7,14.92-6.35,30.69-9.49,47.01-8.56,23.23,1.33,44.25,8.82,62.5,23.42,19.8,15.84,33.01,36.06,38.67,60.8,7.36,32.13,2.38,61.83-18.38,88.26-18.14,23.1-42.16,35.95-70.55,41.62-5.3,1.06-10.51,2.14-15.96,2.09-2.65-.03-2.67-1.51-1.76-2.88,5.19-7.76,9.14-16.18,13.22-24.52.86-1.75,2.05-1.84,3.62-2.29,20.89-5.98,39.56-15.61,52.23-34.05,10.6-15.42,14.3-32.51,12.28-51.25-1.74-16.22-7.67-30.35-17.5-43.1-12.41-16.1-28.84-25.9-48.6-29.54-21.74-4.01-42.18.22-60.63,12.63-5.89,3.96-11.44,8.47-15.9,14.76Z"/>
      <path class="cls-1" d="M262.9,213.53c24.87,11.23,37.72,30,41.93,54.8,3.77,22.16-2.24,42.76-12.05,62.49-11.6,23.33-26.91,44.04-44.99,62.66-13.56,13.96-27.61,27.46-44.26,37.84-2.8,1.74-3.77,2.78-.57,5.59,3.88,3.42,6.93,7.8,10.24,11.85,1.63,2,1.62,3.3-.93,5.31-6.07,4.79-9.96,11.51-13.81,18.14-.83,1.43-1.07,3.23-2.88,4.36-9.45-15.66-23.35-26.03-39.82-33.35-10.5-4.67-21.54-4.86-32.71-4.62-6.56.14-7.55-1.38-4.23-7.28,5.52-9.81,14.5-14.79,25.38-15.77,8.97-.8,18.13-1.28,26.66,2.99,1.9.95,3.62.56,5.61-.69,13.28-8.33,25.36-18.13,37.1-28.49,14.19-12.51,27.11-26.13,38.1-41.49,13.31-18.6,23.75-38.73,27.73-61.46,3.26-18.61.5-36.75-7.08-54.13-2.6-5.96-5.48-11.78-9.44-18.75Z"/>
      <path class="cls-1" d="M234.9,342.98c-5.45,8.47-12.15,14.87-17.61,22.24-1.05,1.42-2.95.76-4.4.39-31.96-8.32-53.83-27.84-62.38-59.88-6.85-25.66-3.38-50.36,13.22-72.22,5.47-7.2,16.59-15.75,25.79-19.39.76,1.16.55,2.12-.23,3.3-13.07,19.81-18.18,41.9-15.94,65.16,3.05,31.77,23.52,52.25,55.26,59.04,1.86.4,3.72.81,6.29,1.37Z"/>
      <path class="cls-1" d="M339.05,439.15c-16.75-3.05-31.78.06-46.01,6.97-14.08,6.83-24.99,17.45-34.41,30.81-2.48-6.43-5.41-12.32-9.89-17.24-.82-.9-1.48-1.96-2.37-2.79-6.19-5.78-6.39-5.94-.7-11.85,9.93-10.32,20.79-19.85,34.06-25.31,16.31-6.71,33.09-8.47,49.06,1.99,5.97,3.91,8.2,9.93,10.25,17.42Z"/>
      <path class="cls-1" d="M240.98,521.97c-4.12.15-6.82,2.53-9.62,4.45-2.99,2.05-5.36,2.22-8.31-.29-2.36-2.01-5.08-4.03-9.03-4.1,1.38,3.94,3.48,6.93,5.98,9.48,2.2,2.24,1.67,3.71-.13,5.7-3.86,4.27-7.09,8.93-8.84,14.54-.87,2.81-2.27,4.01-5.54,2.02-7.64-4.65-10.48-12.57-7.6-23.02,3.23-11.71,9.15-22.22,14.86-32.8,4.07-7.54,8.42-14.94,12.58-22.43,1.39-2.5,2.43-3.19,4.12-.15,9.98,17.95,20.57,35.64,27.43,55.07,3.94,11.16.74,19.1-7.31,23.23-3.19,1.64-4.76.98-5.76-2.11-1.79-5.52-4.71-10.37-8.71-14.52-2.12-2.2-2.14-3.73-.01-6.15,2.21-2.52,5.01-4.83,5.87-8.93Z"/>
      <path class="cls-1" d="M253.3,25.57c.9,14.23-10.02,26.4-26.04,26.6-14.29.17-25.1-9.15-26.02-26.66-.84-15.98,11.16-24.52,24.46-25.44,15.54-1.08,27,9.92,27.61,25.5Z"/>
      <path class="cls-1" d="M251.34,253.91c.59,14.75-12.45,25.63-26.42,24.5-13.07-1.05-23.15-12.55-22.22-26.23,1.02-15.05,12.22-23.22,25.58-22.92,14.5.32,23.71,11.86,23.05,24.65Z"/>
      <path class="cls-1" d="M90.88,421.39c-8.36-8.01-12.93-18.98-9.12-30.59,3.49-10.63,11.86-15.97,22.16-17.4,26.07-3.62,45.91,7.59,61.61,27.59,1,1.27,2.15,2.81,1.12,4.23-.89,1.22-2.5-.17-3.62-.44-11.96-2.85-23.78-6.4-35.82-8.84-10.69-2.17-21.43-2.41-30.17,6.16-5.19,5.09-6.59,11.44-6.16,19.3Z"/>
      <path class="cls-1" d="M364.05,421.95c3.43-14.29-3.93-24.55-17.67-26.68-13.4-2.07-25.48,2.82-37.97,5.74-5.33,1.25-10.64,2.62-15.98,3.83-.95.21-2.27.79-2.98-.18-.92-1.26.28-2.31.96-3.23,11.88-16.05,27.37-25.83,47.5-28.33,7.1-.88,13.95-.57,20.49,1.62,17.86,5.98,22.04,26.72,12.07,40.94-1.58,2.24-2.54,5.49-6.42,6.3Z"/>
      <path class="cls-1" d="M414.55,311.5c2.82,32.65-9.14,60.33-29.73,85.5-9.2-35.18,5.19-62.01,29.73-85.5Z"/>
      <path class="cls-1" d="M71.49,396.72c-7.5-8.31-13.08-16.25-17.52-25.05-5.91-11.71-10.25-23.99-12.35-36.9-1.03-6.31-2-12.78-1.33-19.27.17-1.66.17-3.82,1.98-4.35,1.42-.42,2.13,1.51,2.97,2.56,9.78,12.1,19.83,23.94,24.82,39.17,3.97,12.11,3.47,24.27,2.2,36.58-.2,1.89-.41,3.77-.78,7.26Z"/>
      <path class="cls-1" d="M227.55,539.98c12.47,12.1,19.23,33.73,2.73,51.85-2.15,2.36-3.39,2-5.43-.11-12.07-12.48-12.84-31.57-1.52-46.57,1.32-1.75,2.05-4.08,4.22-5.17Z"/>
      <path class="cls-1" d="M315.51,530.42c0,7.5-4.13,11.73-11.5,11.81-8.42.09-13.77-4.92-13.68-12.81.08-7,5.88-12.67,13.07-12.77,7.1-.1,12.12,5.6,12.11,13.77Z"/>
      <path class="cls-1" d="M139.4,529.28c.08-7.43,5.42-12.73,12.71-12.62,6.83.1,12.88,6.72,12.59,13.76-.26,6.39-6.84,13.2-12.8,12.49-7.37-.88-12.24-4.81-12.51-13.63Z"/>
    </g>
  </g>
</svg>